<?xml version="1.0" encoding="iso-8859-1"?>
<!-- Generator: Adobe Illustrator 19.0.0, SVG Export Plug-In . SVG Version: 6.00 Build 0)  -->
<svg xmlns="http://www.w3.org/2000/svg" xmlns:xlink="http://www.w3.org/1999/xlink" version="1.1" id="Capa_1" x="0px" y="0px" viewBox="0 0 512 512" style="enable-background:new 0 0 512 512;" xml:space="preserve" width="512px" height="512px">
<g>
	<g>
		<path d="M512,215.931c0-63.871-33.23-124.101-91.17-165.249c-3.339-2.368-8.107-1.562-10.479,1.775    c-2.372,3.339-1.562,8.108,1.776,10.478c53.919,38.292,84.844,94.056,84.844,152.995c0,85.853-65.438,162.241-162.833,190.082    c-4.093,1.169-6.438,5.687-5.026,9.712l24.085,68.651l-91.584-66.143c-1.281-0.925-2.82-1.423-4.4-1.423c-0.006,0-0.012,0-0.018,0    L256,416.824c-132.872,0-240.971-90.12-240.971-200.892S123.128,15.039,256,15.039c44.304,0,87.613,10.117,125.247,29.256    c3.698,1.88,8.223,0.409,10.105-3.292c1.882-3.698,0.408-8.223-3.291-10.105C348.325,10.691,302.66,0.01,256,0.01    c-68.136,0-132.251,22.303-180.535,62.799C26.801,103.624,0,158.004,0,215.931S26.801,328.24,75.465,369.054    c48.001,40.26,111.643,62.536,179.332,62.797l109.022,78.736c2.854,2.061,6.865,1.83,9.465-0.543    c2.203-2.01,3.014-5.221,2.026-8.037l-29.412-83.838C445.587,386.698,512,306.28,512,215.931z" fill="#a951ed"/>
	</g>
</g>
<g>
	<g>
		<path d="M191.875,56.119c-28.118,0-51.427,20.977-55.105,48.102c-0.497-0.008-0.998-0.015-1.495,0.017    c-34.852,0.309-63.134,28.682-63.134,63.599c0,18.803,8.04,36.12,21.939,48.094c-13.899,11.975-21.939,29.292-21.939,48.094    c0,35.083,28.542,63.624,63.624,63.624c0.335,0,0.669-0.003,1.005-0.008c3.676,27.125,26.987,48.102,55.105,48.102    c30.663,0,55.609-24.946,55.609-55.609V111.728C247.483,81.065,222.538,56.119,191.875,56.119z M232.454,320.135    c0,22.376-18.204,40.579-40.579,40.579c-20.508,0-37.5-15.296-40.195-35.076c10.697-2.746,20.538-8.251,28.618-16.171    c2.925-2.866,2.973-7.703,0.107-10.627s-7.703-2.972-10.627-0.106c-7.422,7.274-16.785,11.893-26.897,13.371    c-2.364,0.294-4.732,0.516-7.116,0.516c-26.795,0-48.595-21.8-48.595-48.595c0-17.172,8.784-32.721,23.498-41.615    c7.558-4.571,16.181-6.982,25.097-6.982c4.095,0,7.515-3.42,7.515-7.515c0-4.095-3.42-7.515-7.515-7.515    c-10.002,0-19.724,2.323-28.533,6.752c-12.627-9.134-20.062-23.533-20.062-39.316c0-26.795,21.8-48.595,48.595-48.595    c2.401,0,4.766,0.253,7.147,0.521c10.437,1.526,20.038,6.385,27.564,14.065c3.067,3.13,8.304,2.917,11.124-0.43    c2.46-2.92,2.279-7.365-0.389-10.089c-8.254-8.424-18.416-14.256-29.53-17.101c2.702-19.773,19.691-35.06,40.193-35.06    c22.376,0,40.579,18.204,40.579,40.579V320.135z" fill="#a951ed"/>
	</g>
</g>
<g>
	<g>
		<path d="M417.92,215.93c13.899-11.973,21.939-29.29,21.939-48.093c0-34.925-28.308-63.327-63.158-63.601    c-0.489-0.031-0.982-0.023-1.471-0.016c-3.676-27.125-26.987-48.102-55.105-48.102c-30.663,0-55.609,24.946-55.609,55.609v208.407    c0,30.663,24.946,55.609,55.609,55.609c28.118,0,51.427-20.977,55.105-48.102c0.336,0.005,0.67,0.008,1.005,0.008    c35.083,0,63.624-28.542,63.624-63.624C439.859,245.221,431.819,227.905,417.92,215.93z M376.235,312.62    c-2.4,0-4.766-0.253-7.146-0.521c-10.1-1.483-19.452-6.099-26.865-13.366c-2.964-2.905-7.721-2.858-10.627,0.106    c-2.905,2.965-2.858,7.722,0.107,10.627c8.08,7.919,17.921,13.424,28.618,16.171c-2.695,19.781-19.688,35.076-40.195,35.076    c-22.376,0-40.579-18.204-40.579-40.579V111.726c0-22.376,18.204-40.579,40.579-40.579c20.502,0,37.492,15.287,40.193,35.06    c-11.115,2.846-21.276,8.677-29.53,17.101c-2.673,2.728-2.843,7.164-0.389,10.089c2.813,3.354,8.062,3.555,11.124,0.43    c7.526-7.68,17.125-12.539,27.562-14.065c2.383-0.264,4.747-0.521,7.149-0.521c26.795,0,48.595,21.8,48.595,48.595    c-0.001,15.785-7.437,30.184-20.063,39.319c-8.809-4.43-18.531-6.752-28.533-6.752c-4.15,0-7.515,3.364-7.515,7.515    s3.365,7.515,7.515,7.515c8.916,0,17.54,2.411,25.097,6.982c14.714,8.893,23.498,24.443,23.498,41.612    C424.83,290.82,403.03,312.62,376.235,312.62z" fill="#a951ed"/>
	</g>
</g>
<g>
</g>
<g>
</g>
<g>
</g>
<g>
</g>
<g>
</g>
<g>
</g>
<g>
</g>
<g>
</g>
<g>
</g>
<g>
</g>
<g>
</g>
<g>
</g>
<g>
</g>
<g>
</g>
<g>
</g>
</svg>
