<?xml version="1.0" encoding="iso-8859-1"?>
<!-- Generator: Adobe Illustrator 19.0.0, SVG Export Plug-In . SVG Version: 6.00 Build 0)  -->
<svg xmlns="http://www.w3.org/2000/svg" xmlns:xlink="http://www.w3.org/1999/xlink" version="1.1" id="Capa_1" x="0px" y="0px" viewBox="0 0 512 512" style="enable-background:new 0 0 512 512;" xml:space="preserve" width="512px" height="512px">
<g>
	<g>
		<g>
			<circle cx="384" cy="128" r="21.333" fill="#02b3e4"/>
			<path d="M373.333,64c-29.672,0-55.145,17.533-67.177,42.667h-199.49C83.135,106.667,64,125.802,64,149.333V192     c0,23.531,19.135,42.667,42.667,42.667h128v32c0,5.896,4.771,10.667,10.667,10.667h32c2.833,0,5.542-1.125,7.542-3.125     l64.813-64.813c7.688,2.615,15.615,3.938,23.646,3.938c41.167,0,74.667-33.5,74.667-74.667C448,97.5,414.5,64,373.333,64z      M106.667,213.333c-11.76,0-21.333-9.573-21.333-21.333v-42.667c0-11.76,9.573-21.333,21.333-21.333h193.078     c-0.509,3.514-1.078,7.014-1.078,10.667c0,8.031,1.323,15.958,3.938,23.646l-51.021,51.021H106.667z M373.333,192     c-7.438,0-14.802-1.615-21.865-4.802c-4.01-1.802-8.771-0.958-11.927,2.177L272.917,256H256v-16.917l66.625-66.625     c3.135-3.135,4.01-7.885,2.177-11.927c-3.188-7.063-4.802-14.427-4.802-21.865c0-29.406,23.927-53.333,53.333-53.333     s53.333,23.927,53.333,53.333S402.74,192,373.333,192z" fill="#02b3e4"/>
			<path d="M469.333,21.333H42.667C19.135,21.333,0,40.469,0,64v298.667c0,23.531,19.135,42.667,42.667,42.667h149.362     c-0.46,17.052-3.728,44.306-15.893,57.104c-4.469,4.708-9.604,6.896-16.135,6.896c-5.896,0-10.667,4.771-10.667,10.667     c0,5.896,4.771,10.667,10.667,10.667h192c5.896,0,10.667-4.771,10.667-10.667c0-5.896-4.771-10.667-10.667-10.667     c-6.531,0-11.667-2.188-16.135-6.896c-12.165-12.798-15.434-40.052-15.893-57.104h149.362c23.531,0,42.667-19.135,42.667-42.667     V64C512,40.469,492.865,21.333,469.333,21.333z M197.729,469.333c12.881-19.749,15.374-48.188,15.695-64h85.151     c0.322,15.813,2.814,44.251,15.695,64H197.729z M490.667,362.667c0,11.76-9.573,21.333-21.333,21.333H42.667     c-11.76,0-21.333-9.573-21.333-21.333V320h469.333V362.667z M490.667,298.667H21.333V64c0-11.76,9.573-21.333,21.333-21.333     h426.667c11.76,0,21.333,9.573,21.333,21.333V298.667z" fill="#02b3e4"/>
			<circle cx="256" cy="352" r="21.333" fill="#02b3e4"/>
		</g>
	</g>
</g>
<g>
</g>
<g>
</g>
<g>
</g>
<g>
</g>
<g>
</g>
<g>
</g>
<g>
</g>
<g>
</g>
<g>
</g>
<g>
</g>
<g>
</g>
<g>
</g>
<g>
</g>
<g>
</g>
<g>
</g>
</svg>
